<?xml version="1.0" encoding="utf-8"?>
<svg viewBox="0 0 500 500" xmlns="http://www.w3.org/2000/svg">
  <path fill="#F5483E" opacity="1.000000" stroke="none" d="M 169.669 328.368 C 169.39 327.746 169.166 327.556 168.611 327.477 C 167.996 326.962 167.374 326.959 166.651 326.537 C 160.956 322.298 154.788 319.271 149.561 314.832 C 122.968 292.245 109.662 263.663 111.525 228.675 C 112.23 215.447 117.822 203.572 125.385 192.784 C 129.303 187.196 133.739 181.935 138.952 177.497 C 141.468 175.355 140.919 174.087 138.968 172.074 C 133.139 166.063 128.222 159.379 124.636 151.755 C 115.874 133.126 120.703 116.826 133.101 101.8 C 148.57 83.053 169.761 78.017 192.573 77.553 C 206.554 77.269 220.554 77.973 234.546 78.225 C 236.127 78.254 237.71 78.229 239.515 78.229 C 230.895 69.467 220.367 67.18 208.94 66.667 C 186.075 65.64 164.032 68.593 143.536 79.321 C 137.361 82.554 131.59 86.572 125.709 90.346 C 122.441 92.442 118.93 93.917 115.234 94.95 C 106.682 97.34 98.827 94.784 94.672 86.927 C 86.199 70.903 83.462 53.794 89.024 36.265 C 92.864 24.164 103.465 20.022 114.756 17.507 C 119.825 16.378 125.008 16.32 130.176 16.321 C 196.663 16.342 263.15 16.356 329.638 16.452 C 333.779 16.458 337.944 16.96 342.056 17.531 C 351.982 18.908 358.367 24.187 360.743 34.261 C 363.485 45.886 364.75 57.508 362.512 69.354 C 359.759 83.918 350.16 92.241 336.77 96.369 C 331.445 98.01 328.853 100.06 328.695 105.913 C 328.493 113.376 327.299 120.817 326.424 128.254 C 324.921 141.039 318.388 146.107 305.561 144.094 C 293.569 142.211 281.689 139.533 269.659 137.989 C 253.843 135.957 239.397 139.956 225.585 150.306 C 232.591 150.984 238.327 149.501 244.096 148.988 C 261.48 147.445 278.8 147.649 295.58 152.829 C 315.096 158.854 328.146 172.385 336.453 190.667 C 345.554 210.696 348.517 231.159 339.311 252.03 C 335.174 261.41 329.353 269.709 321.47 276.851 C 317.917 280.722 315.022 285.071 308.952 284.985 C 308.437 284.793 308.238 284.704 307.761 284.454 C 307.142 284.057 306.816 283.802 306.285 283.329 C 305.782 282.871 305.499 282.611 304.989 282.183 C 304.299 281.697 303.828 281.387 303.086 280.962 C 302.009 280.267 301.2 279.691 300.064 279.038 C 299.431 278.636 299.076 278.386 298.448 277.931 C 291.47 272.229 284.222 267.468 277.251 262.33 C 270.912 257.658 264.123 253.787 256.664 251.202 C 248.063 248.221 241.916 243.1 240.03 233.659 C 239.318 230.098 231.652 225.911 228.929 227.113 C 225.121 228.795 223.556 237.832 226.575 241.116 C 232.824 247.917 240.18 253.379 247.962 258.252 C 260.247 265.943 272.969 272.909 285.29 280.54 C 287.721 282.046 290.928 282.939 291.368 286.7 C 288.588 288.35 285.585 287.615 282.631 288.855 C 281.051 289.31 279.813 289.484 278.186 289.47 C 274.573 289.019 271.454 289.519 268.131 290.916 C 267.183 291.297 266.522 291.39 265.526 291.352 C 263.973 290.934 262.835 291.271 261.436 291.911 C 260.954 292.098 260.758 292.168 260.262 292.329 C 258.936 292.67 257.903 292.901 256.774 293.781 C 254.186 295.314 251.647 296.135 249.231 297.232 C 231.228 305.405 219.094 319.025 212.147 337.402 C 211.382 339.426 210.932 341.579 208.456 342.844 C 197.32 340.638 187.149 336.606 177.179 332.015 C 176.118 331.527 175.095 330.983 173.772 330.414 C 173.608 330.061 173.565 330.18 173.627 330.166 C 172.296 329.939 171.222 328.887 169.669 328.368 Z"/>
  <path fill="#F20148" opacity="1.000000" stroke="none" d="M 207.873 341.609 C 211.546 335.472 213.153 328.891 216.773 323.032 C 223.47 312.194 232.062 303.666 242.99 297.45 C 246.994 295.173 251.472 293.728 255.976 291.65 C 257.189 290.311 258.522 291.016 259.944 290.488 C 260.239 290.275 260.185 290.261 260.181 290.288 C 261.132 289.389 262.493 290.055 263.875 289.369 C 265.06 289.223 265.902 289.167 267.152 289.005 C 270.266 287.037 273.603 288.242 276.824 287.159 C 278.3 287.02 279.402 286.792 280.819 286.425 C 284.803 286.978 288.434 286.043 292.509 285.962 C 298.161 285.847 303.165 286.719 307.963 289.838 C 310.478 291.032 310.124 293.022 310.246 294.81 C 310.598 299.958 311.02 305.102 311.283 310.253 C 311.4 312.539 312.064 313.537 314.613 313.06 C 339.428 308.41 352.465 319.278 362.242 340.323 C 371.968 361.256 380.822 382.592 390.167 403.704 C 392.654 409.323 395.664 414.71 398.217 420.302 C 401.704 427.942 401.311 435.374 396.808 442.629 C 388.785 455.556 376.887 462.531 362.2 464.642 C 343.394 467.345 326.062 463.964 311.788 450.333 C 306.876 445.641 303.895 439.753 301.392 433.518 C 300.128 430.369 300.662 428.532 303.517 426.513 C 310.708 421.428 317.542 415.869 324 409.838 C 332.256 402.129 334.89 392.987 331.624 382.217 C 331.219 380.882 332.037 378.472 329.366 378.471 C 327.28 378.47 326.037 379.761 325.227 381.551 C 322.335 387.946 318.555 393.822 314.272 399.332 C 306.902 408.813 298.214 416.74 286.081 419.431 C 264.814 424.149 246.245 417.92 230.169 404.066 C 216.724 392.48 211.203 376.774 209.308 359.588 C 208.78 354.794 208.558 349.966 208.098 344.711 C 207.525 343.546 207.385 342.769 207.873 341.609 Z"/>
</svg>